<?xml version="1.0" standalone="no"?>
<!DOCTYPE svg PUBLIC "-//W3C//DTD SVG 20010904//EN"
 "http://www.w3.org/TR/2001/REC-SVG-20010904/DTD/svg10.dtd">
<svg version="1.0" xmlns="http://www.w3.org/2000/svg"
 width="817.000000pt" height="817.000000pt" viewBox="0 0 817.000000 817.000000"
 preserveAspectRatio="xMidYMid meet">
<metadata>
Created by potrace 1.14, written by Peter Selinger 2001-2017
</metadata>
<g transform="translate(0.000000,817.000000) scale(0.100000,-0.100000)"
fill="#000000" stroke="none">
<path d="M3843 8163 c37 -2 97 -2 135 0 37 2 6 3 -68 3 -74 0 -105 -1 -67 -3z"/>
<path d="M7957 8163 c18 -2 50 -2 70 0 21 2 7 4 -32 4 -38 0 -55 -2 -38 -4z"/>
<path d="M3775 8131 c-29 -18 -3738 -3723 -3756 -3752 -5 -8 -8 -430 -6 -999
1 -891 2 -930 7 -405 3 319 6 567 8 550 3 -44 13 -76 23 -73 17 7 4668 4651
4664 4658 -7 11 -59 19 -130 21 -33 1 -70 6 -81 10 -19 7 -307 -278 -2250
-2224 l-2229 -2231 -3 214 -2 215 2005 2005 c1103 1103 2005 2010 2005 2015 0
6 -46 11 -112 13 -97 2 -117 0 -143 -17z"/>
<path d="M3103 8050 c-68 -15 -139 -36 -158 -46 -19 -11 -655 -639 -1413
-1397 l-1378 -1378 -29 -117 c-50 -203 -54 -223 -44 -220 7 2 3127 3117 3176
3171 15 16 14 17 -8 16 -13 -1 -79 -14 -146 -29z"/>
<path d="M4036 6991 l-1049 -1049 -110 -1 c-61 -1 -112 -3 -115 -6 -2 -2 -4
-52 -3 -111 l2 -108 -1322 -1322 -1323 -1323 28 -100 c16 -56 31 -101 35 -101
3 0 582 576 1286 1280 704 704 1283 1280 1286 1280 4 0 7 -6 6 -12 0 -7 1 -66
1 -130 l2 -118 75 0 c41 0 75 -3 75 -7 0 -5 -590 -597 -1310 -1317 -1094
-1094 -1309 -1313 -1304 -1330 11 -37 74 -156 82 -156 4 0 103 96 221 214 147
147 219 212 229 208 11 -4 14 -1 10 10 -4 10 72 94 246 267 139 139 257 251
262 250 19 -3 29 2 17 9 -8 5 279 299 857 877 l869 869 1 -215 0 -214 -1280
-1280 c-704 -704 -1280 -1287 -1279 -1295 0 -21 85 -155 95 -153 5 1 560 552
1234 1225 l1225 1223 3 -215 2 -215 -54 -55 c-30 -30 -62 -62 -70 -70 -8 -8
-498 -499 -1090 -1090 l-1076 -1074 17 -26 c30 -47 95 -121 104 -118 5 2 495
489 1089 1083 l1080 1080 0 -220 0 -220 -980 -980 c-539 -538 -980 -982 -980
-986 0 -12 131 -131 138 -125 4 4 341 341 750 749 l742 742 -1 -216 -1 -216
-629 -629 c-346 -346 -629 -634 -629 -640 0 -5 32 -34 70 -64 l71 -53 117 116
c64 63 346 345 626 626 l510 510 220 1 221 1 -710 -710 c-390 -391 -711 -715
-713 -720 -3 -10 147 -103 160 -99 5 2 351 346 771 765 l762 763 213 0 c116 0
212 -3 212 -7 0 -5 -374 -381 -830 -837 -457 -457 -830 -833 -830 -837 0 -7
33 -23 123 -60 l58 -23 2659 2659 c1587 1587 2660 2667 2660 2678 0 28 -68
169 -80 165 -6 -2 -799 -792 -1763 -1756 -964 -963 -1756 -1752 -1760 -1752
-4 0 -7 96 -7 212 l0 213 1148 1149 c631 632 1170 1172 1198 1200 28 28 274
273 547 545 l495 494 -47 76 c-26 42 -52 76 -59 76 -6 0 -785 -773 -1730
-1718 l-1718 -1717 -90 2 -89 3 -3 124 -3 123 313 314 c268 269 318 315 348
319 96 15 289 68 367 101 175 75 357 213 466 356 130 170 194 326 218 534 l12
102 868 867 868 867 -56 69 c-30 38 -59 69 -63 69 -5 0 -372 -364 -817 -810
-444 -445 -812 -808 -818 -807 -5 2 -11 14 -13 28 -5 40 -61 212 -81 249 l-20
35 767 767 c422 423 767 773 767 778 0 14 -116 131 -126 128 -5 -2 -348 -342
-763 -756 l-753 -754 -54 57 c-30 32 -82 78 -117 103 l-64 45 754 753 c414
414 754 757 756 762 4 14 -125 114 -143 110 -8 -2 -358 -346 -778 -765 l-762
-762 -100 34 c-55 19 -130 40 -167 47 l-66 13 794 795 c437 437 799 803 804
813 9 14 1 23 -52 57 -35 22 -72 43 -83 45 -16 4 -195 -169 -870 -840 l-849
-845 -208 0 c-114 0 -208 3 -208 8 0 4 410 416 910 917 501 500 910 913 910
917 0 9 -60 40 -128 67 l-49 20 -964 -965 -964 -964 -220 0 -220 0 1015 1015
c558 558 1016 1018 1017 1022 3 9 -110 48 -167 58 l-35 6 -1049 -1050z m294
-1824 c0 -1 -94 -96 -210 -211 l-209 -209 -1 211 0 212 210 0 c115 0 210 -1
210 -3z m351 -98 c42 -33 72 -82 84 -138 7 -33 5 -36 -226 -267 l-234 -234
-192 0 -193 0 0 28 c0 23 53 81 324 350 l324 323 37 -15 c20 -9 55 -30 76 -47z
m9 -534 c-24 -25 -49 -45 -54 -45 -6 0 12 22 39 50 27 27 51 47 54 45 3 -3
-15 -26 -39 -50z m-600 -1020 c-90 -90 -166 -162 -169 -160 -2 3 -5 77 -5 165
l-1 160 170 0 170 0 -165 -165z m-1000 -640 l0 -55 -62 0 -62 0 54 55 c30 30
58 55 62 55 4 0 8 -25 8 -55z"/>
<path d="M2095 7652 c-230 -125 -552 -354 -730 -518 -124 -115 -169 -158 -253
-248 -195 -206 -348 -404 -496 -639 -96 -154 -165 -278 -142 -257 21 19 1665
1662 1680 1679 25 28 23 27 -59 -17z"/>
<path d="M5424 2728 c-1405 -1403 -2551 -2555 -2547 -2559 9 -7 175 -49 196
-49 9 0 4919 4899 4975 4964 7 8 -51 196 -60 196 -5 0 -1159 -1148 -2564
-2552z"/>
<path d="M5783 2378 c-1283 -1283 -2328 -2335 -2323 -2338 6 -3 58 -12 116
-19 l107 -13 2233 2233 2234 2234 3 -215 c2 -157 2 -148 1 30 -1 135 -4 261
-7 280 -3 19 -8 59 -12 88 -3 28 -9 52 -13 52 -4 0 -1057 -1049 -2339 -2332z"/>
<path d="M6134 2021 l-2010 -2010 135 0 135 0 1881 1879 1880 1879 3 131 c2
71 0 130 -5 130 -4 0 -913 -904 -2019 -2009z"/>
<path d="M6487 1672 c-873 -873 -1587 -1591 -1587 -1595 0 -5 9 -6 20 -2 10 3
41 10 67 15 26 4 94 21 151 37 l103 28 1388 1387 1387 1388 37 153 c39 161 42
177 29 177 -4 0 -721 -714 -1595 -1588z"/>
<path d="M6847 1323 c-466 -466 -845 -849 -842 -851 5 -5 110 53 245 136 479
297 923 726 1237 1197 98 148 218 353 211 361 -2 2 -385 -378 -851 -843z"/>
<path d="M13 945 c0 -44 2 -61 4 -37 2 23 2 59 0 80 -2 20 -4 1 -4 -43z"/>
<path d="M12 345 c0 -16 2 -22 5 -12 2 9 2 23 0 30 -3 6 -5 -1 -5 -18z"/>
</g>
</svg>
